<svg width="64" height="64" viewBox="0 0 64 64" fill="none" xmlns="http://www.w3.org/2000/svg">
<path fill-rule="evenodd" clip-rule="evenodd" d="M51.5439 11.8575C51.1201 11.9329 50.5411 12.1245 49.697 12.4059L16.876 23.3462C14.5076 24.1357 12.7815 24.7122 11.6418 25.2666C10.4602 25.8415 10.1582 26.2762 10.1582 26.6666C10.1582 27.0571 10.4602 27.4918 11.6418 28.0666C12.7815 28.621 14.5076 29.1975 16.876 29.987L27.5944 33.5598C27.6313 33.5721 27.6676 33.5842 27.7035 33.5961C28.5281 33.8705 29.1016 34.0613 29.5203 34.48C29.939 34.8987 30.1298 35.4722 30.4041 36.2967C30.4161 36.3326 30.4282 36.369 30.4404 36.4059L34.0133 47.1243C34.8027 49.4927 35.3792 51.2188 35.9336 52.3584C36.5085 53.5401 36.9432 53.8421 37.3336 53.8421C37.7241 53.8421 38.1588 53.5401 38.7337 52.3584C39.2881 51.2188 39.8646 49.4927 40.654 47.1243L51.5944 14.3032C51.8757 13.4592 52.0674 12.8801 52.1428 12.4564C52.2188 12.029 52.1438 11.9319 52.1061 11.8942C52.0683 11.8565 51.9712 11.7815 51.5439 11.8575ZM51.3687 10.873C51.8785 10.7823 52.4139 10.7878 52.8132 11.1871C53.2125 11.5864 53.218 12.1217 53.1273 12.6315C53.0375 13.1363 52.8211 13.7855 52.5566 14.5788L52.5431 14.6195L41.6027 47.4405L41.5885 47.4831C40.8161 49.8005 40.2197 51.5897 39.6329 52.7959C39.063 53.9674 38.3847 54.8421 37.3336 54.8421C36.2826 54.8421 35.6043 53.9674 35.0344 52.7959C34.4476 51.5897 33.8512 49.8005 33.0787 47.483L33.0646 47.4405L29.4918 36.7221C29.1655 35.7434 29.0439 35.4179 28.8132 35.1871C28.5824 34.9563 28.2568 34.8347 27.2782 34.5085L16.5597 30.9357L16.5172 30.9215C14.1998 30.149 12.4106 29.5526 11.2044 28.9659C10.0329 28.3959 9.1582 27.7177 9.1582 26.6666C9.1582 25.6155 10.0329 24.9373 11.2044 24.3674C12.4106 23.7806 14.1998 23.1842 16.5172 22.4117L16.5597 22.3975L49.3808 11.4572L49.4217 11.4436C50.2148 11.1791 50.864 10.9627 51.3687 10.873Z" fill="#5F593E"/>
</svg>
