<svg width="64" height="65" viewBox="0 0 64 65" fill="none" xmlns="http://www.w3.org/2000/svg">
<path d="M45.333 32C45.6092 32 45.833 32.2239 45.833 32.5C45.833 32.7761 45.6092 33 45.333 33V32ZM7.99968 33C7.72353 33 7.49968 32.7761 7.49968 32.5C7.49968 32.2239 7.72353 32 7.99968 32V33ZM45.333 33H7.99968V32H45.333V33Z" fill="#221C23"/>
<path d="M58.3097 32.2856L46.5453 25.227C46.012 24.907 45.3337 25.2911 45.3337 25.913V39.087C45.3337 39.7089 46.012 40.093 46.5453 39.773L58.3097 32.7144C58.4715 32.6173 58.4715 32.3827 58.3097 32.2856Z" fill="#221C23"/>
</svg>
