<svg width="64" height="65" viewBox="0 0 64 65" fill="none" xmlns="http://www.w3.org/2000/svg">
<rect width="64" height="64" transform="translate(0 0.5)" fill="#F6F1DE" fill-opacity="0.47"/>
<path d="M18.667 32C18.3908 32 18.167 32.2239 18.167 32.5C18.167 32.7761 18.3908 33 18.667 33V32ZM56.0003 33C56.2765 33 56.5003 32.7761 56.5003 32.5C56.5003 32.2239 56.2765 32 56.0003 32V33ZM18.667 33H56.0003V32H18.667V33Z" fill="#221C23"/>
<path d="M5.6903 32.2856L17.4547 25.227C17.988 24.907 18.6663 25.2911 18.6663 25.913V39.087C18.6663 39.7089 17.988 40.093 17.4547 39.773L5.6903 32.7144C5.52846 32.6173 5.52846 32.3827 5.6903 32.2856Z" fill="#221C23"/>
</svg>
