<svg width="48" height="48" viewBox="0 0 48 48" fill="none" xmlns="http://www.w3.org/2000/svg">
<path d="M20 30L20 24" stroke="#1A151A" stroke-linecap="round"/>
<path d="M28 30L28 24" stroke="#1A151A" stroke-linecap="round"/>
<path d="M6 14H42H40C38.1144 14 37.1716 14 36.5858 14.5858C36 15.1716 36 16.1144 36 18V36C36 37.8856 36 38.8284 35.4142 39.4142C34.8284 40 33.8856 40 32 40H16C14.1144 40 13.1716 40 12.5858 39.4142C12 38.8284 12 37.8856 12 36V18C12 16.1144 12 15.1716 11.4142 14.5858C10.8284 14 9.88562 14 8 14H6Z" stroke="#1A151A" stroke-linecap="round"/>
<path d="M20.1363 6.74118C20.3642 6.52855 20.8664 6.34066 21.565 6.20665C22.2635 6.07264 23.1195 6 24 6C24.8805 6 25.7365 6.07264 26.435 6.20665C27.1336 6.34066 27.6358 6.52855 27.8637 6.74118" stroke="#1A151A" stroke-linecap="round"/>
</svg>
