<svg width="64" height="64" viewBox="0 0 64 64" fill="none" xmlns="http://www.w3.org/2000/svg">
<path d="M9.33301 20.2315C9.33301 19.2064 9.33301 18.6939 9.53566 18.3037C9.70644 17.975 9.9745 17.7069 10.3033 17.5362C10.6934 17.3335 11.2059 17.3335 12.231 17.3335H51.7683C52.7934 17.3335 53.306 17.3335 53.6961 17.5362C54.0249 17.7069 54.2929 17.975 54.4637 18.3037C54.6663 18.6939 54.6663 19.2064 54.6663 20.2315V46.4355C54.6663 47.4606 54.6663 47.9731 54.4637 48.3632C54.2929 48.692 54.0249 48.9601 53.6961 49.1308C53.306 49.3335 52.7934 49.3335 51.7683 49.3335H12.231C11.2059 49.3335 10.6934 49.3335 10.3033 49.1308C9.9745 48.9601 9.70644 48.692 9.53566 48.3632C9.33301 47.9731 9.33301 47.4606 9.33301 46.4355V20.2315Z" stroke="#5F593E"/>
<path d="M9.33301 28L54.6663 28" stroke="#5F593E" stroke-linecap="round"/>
<ellipse cx="17.3333" cy="41.3333" rx="1.33333" ry="1.33333" fill="#5F593E"/>
</svg>
