<svg width="48" height="48" viewBox="0 0 48 48" fill="none" xmlns="http://www.w3.org/2000/svg">
<path d="M8.90135 27.8164L23.3153 41.3568C23.6398 41.6616 23.802 41.814 24 41.814C24.198 41.814 24.3602 41.6616 24.6847 41.3568L39.0986 27.8164L39.0988 27.8163C39.9732 26.9948 40.4105 26.5841 40.7458 26.1869C43.238 23.2356 43.5689 19.0231 41.5682 15.7188C41.2989 15.2742 40.9312 14.8002 40.1956 13.8521L39.5769 13.0547C39.0299 12.3497 38.7565 11.9972 38.5408 11.7609C34.8959 7.76739 28.4213 8.46462 25.7103 13.1426C25.5498 13.4194 25.3577 13.822 24.9733 14.6273C24.9134 14.7529 24.8834 14.8157 24.861 14.8537C24.4739 15.5088 23.5261 15.5088 23.139 14.8537C23.1166 14.8157 23.0866 14.7529 23.0267 14.6273C22.6423 13.822 22.4502 13.4194 22.2897 13.1426C19.5787 8.46462 13.1041 7.76739 9.45922 11.7609C9.24355 11.9972 8.97008 12.3497 8.42313 13.0546L8.42308 13.0547L7.80438 13.8521C7.06885 14.8002 6.70108 15.2742 6.43182 15.7188C4.43109 19.0231 4.762 23.2356 7.25415 26.1869C7.58954 26.5841 8.02681 26.9949 8.90135 27.8164Z" stroke="#1A151A"/>
</svg>
