<svg width="64" height="64" viewBox="0 0 64 64" fill="none" xmlns="http://www.w3.org/2000/svg">
<path d="M17.333 13.8C17.333 12.8059 18.1389 12 19.133 12H42.1997C43.1938 12 43.9997 12.8059 43.9997 13.8V30.6667H19.133C18.1389 30.6667 17.333 29.8608 17.333 28.8667V13.8Z" stroke="#5F593E"/>
<path d="M12 32.4665C12 31.4724 12.8059 30.6665 13.8 30.6665H33.3333V51.9998H13.8C12.8059 51.9998 12 51.194 12 50.1998V32.4665Z" stroke="#5F593E"/>
<path d="M33.333 30.6665H52.8663C53.8605 30.6665 54.6663 31.4724 54.6663 32.4665V50.1998C54.6663 51.1939 53.8605 51.9998 52.8663 51.9998H33.333V30.6665Z" stroke="#5F593E"/>
<path d="M44 30.6665V38.6665" stroke="#CCD2E3" stroke-linecap="round"/>
<path d="M22.667 30.6665V38.6665" stroke="#CCD2E3" stroke-linecap="round"/>
<path d="M30.667 12V20" stroke="#CCD2E3" stroke-linecap="round"/>
</svg>
