<svg width="24" height="25" viewBox="0 0 24 25" fill="none" xmlns="http://www.w3.org/2000/svg">
<path d="M10.1434 7.12753C10.93 5.16653 11.3233 4.18604 11.9996 4.18604C12.6759 4.18604 13.0692 5.16653 13.8558 7.12753L13.8925 7.21885C14.3369 8.32672 14.5591 8.88065 15.0119 9.21734C15.4648 9.55403 16.0592 9.60727 17.2481 9.71374L17.4631 9.73299C19.4089 9.90726 20.3818 9.99439 20.59 10.6134C20.7981 11.2324 20.0756 11.8897 18.6306 13.2044L18.1483 13.6432C17.4168 14.3087 17.051 14.6414 16.8806 15.0776C16.8488 15.1589 16.8223 15.2423 16.8014 15.3271C16.6894 15.7817 16.7965 16.2645 17.0107 17.2299L17.0774 17.5305C17.471 19.3048 17.6679 20.192 17.3242 20.5746C17.1958 20.7176 17.0289 20.8206 16.8434 20.8712C16.3472 21.0066 15.6428 20.4325 14.2338 19.2844C13.3086 18.5305 12.8461 18.1536 12.3149 18.0688C12.106 18.0354 11.8932 18.0354 11.6843 18.0688C11.1532 18.1536 10.6906 18.5305 9.7654 19.2844C8.35645 20.4325 7.65197 21.0066 7.15577 20.8712C6.97035 20.8206 6.80344 20.7176 6.67502 20.5746C6.33134 20.192 6.52818 19.3048 6.92185 17.5305L6.98853 17.2299C7.20274 16.2645 7.30984 15.7817 7.19779 15.3271C7.17688 15.2423 7.15045 15.1589 7.11865 15.0776C6.94817 14.6414 6.58242 14.3087 5.85091 13.6432L5.36863 13.2044C3.92359 11.8897 3.20107 11.2324 3.40924 10.6134C3.61742 9.99439 4.59033 9.90726 6.53614 9.73299L6.75108 9.71374C7.94 9.60727 8.53445 9.55403 8.9873 9.21734C9.44015 8.88065 9.66235 8.32672 10.1067 7.21885L10.1434 7.12753Z" fill="#E1D394" stroke="#E1D394"/>
</svg>
